# xmcd
#
# Track frame offsets: 
#        150
#        16786
#        38801
#        58195
#        73967
#        88696
#        107690
#        124922
#        142343
#
# Disc length: 2168 seconds
#
# Revision: 0
# Processed by: cddbd v1.5.2PL0 Copyright (c) Steve Scherf et al.
# Submitted via: ExactAudioCopyFreeDBPlugin 1.0
#
DISCID=84087609
DTITLE=Antero Kaksik‰si - Suomenkielist‰ Kantrimusiikkia
DYEAR=2018
DGENRE=Country
TTITLE0=Suomenkielist‰ Kantrimusiikkia
TTITLE1=Simo Satama
TTITLE2=12 Kromii
TTITLE3=Taidan Pysyy T‰ss‰
TTITLE4=Moottoriturpa
TTITLE5=Et S‰ T‰ydellinen Oo
TTITLE6=Vastaus On Blowin' In The Wind
TTITLE7=Kun Kadotin Sen
TTITLE8=Jos P‰‰dyt Joskus Mellunm‰keen
EXTD=
EXTT0=
EXTT1=
EXTT2=
EXTT3=
EXTT4=
EXTT5=
EXTT6=
EXTT7=
EXTT8=
PLAYORDER=
